<mxfile host="app.diagrams.net" modified="2024-04-16T04:43:52.928Z" agent="Mozilla/5.0 (Windows NT 10.0; Win64; x64) AppleWebKit/537.36 (KHTML, like Gecko) Chrome/123.0.0.0 Safari/537.36" etag="2jYq9VXCHwlprlxpJfeN" version="24.2.3" type="device">
  <diagram name="Page-1" id="5d7acffa-a066-3a61-03fe-96351882024d">
    <mxGraphModel dx="1050" dy="530" grid="1" gridSize="10" guides="1" tooltips="1" connect="1" arrows="1" fold="1" page="1" pageScale="1" pageWidth="1100" pageHeight="850" background="#ffffff" math="0" shadow="0">
      <root>
        <mxCell id="0" />
        <mxCell id="1" parent="0" />
        <mxCell id="JnftTuMJix3t2wJ7v9Gh-2" value="" style="shape=image;html=1;verticalAlign=top;verticalLabelPosition=bottom;labelBackgroundColor=#ffffff;imageAspect=0;aspect=fixed;image=https://cdn2.iconfinder.com/data/icons/boxicons-logos/24/bxl-spring-boot-128.png" vertex="1" parent="1">
          <mxGeometry x="320" width="80" height="80" as="geometry" />
        </mxCell>
        <mxCell id="JnftTuMJix3t2wJ7v9Gh-3" value="" style="rounded=0;whiteSpace=wrap;html=1;fillColor=none;" vertex="1" parent="1">
          <mxGeometry x="40" y="80" width="640" height="400" as="geometry" />
        </mxCell>
        <mxCell id="JnftTuMJix3t2wJ7v9Gh-4" value="" style="outlineConnect=0;dashed=0;verticalLabelPosition=bottom;verticalAlign=top;align=center;html=1;shape=mxgraph.aws3.mysql_db_instance_2;fillColor=#2E73B8;gradientColor=none;" vertex="1" parent="1">
          <mxGeometry x="960" y="10" width="60" height="70" as="geometry" />
        </mxCell>
        <mxCell id="JnftTuMJix3t2wJ7v9Gh-5" value="" style="rounded=0;whiteSpace=wrap;html=1;fillColor=none;" vertex="1" parent="1">
          <mxGeometry x="50" y="120" width="310" height="280" as="geometry" />
        </mxCell>
        <mxCell id="JnftTuMJix3t2wJ7v9Gh-6" value="&lt;font style=&quot;font-size: 16px;&quot;&gt;&lt;b&gt;Bussiness Logic Layer&lt;/b&gt;&lt;/font&gt;" style="text;html=1;align=center;verticalAlign=middle;resizable=0;points=[];autosize=1;strokeColor=none;fillColor=none;" vertex="1" parent="1">
          <mxGeometry x="75" y="90" width="200" height="30" as="geometry" />
        </mxCell>
        <mxCell id="JnftTuMJix3t2wJ7v9Gh-7" value="&lt;span style=&quot;font-size: 15px;&quot;&gt;&lt;font style=&quot;font-size: 15px;&quot;&gt;single insert query&lt;/font&gt;&lt;/span&gt;" style="text;html=1;align=center;verticalAlign=middle;resizable=0;points=[];autosize=1;strokeColor=none;fillColor=none;fontSize=15;fontStyle=1" vertex="1" parent="1">
          <mxGeometry x="730" y="80" width="150" height="30" as="geometry" />
        </mxCell>
        <mxCell id="JnftTuMJix3t2wJ7v9Gh-8" value="&lt;span style=&quot;font-size: 15px;&quot;&gt;&lt;font style=&quot;font-size: 15px;&quot;&gt;Batch insert query&lt;/font&gt;&lt;/span&gt;" style="text;html=1;align=center;verticalAlign=middle;resizable=0;points=[];autosize=1;strokeColor=none;fillColor=none;fontSize=15;fontStyle=1" vertex="1" parent="1">
          <mxGeometry x="730" y="370" width="140" height="30" as="geometry" />
        </mxCell>
        <mxCell id="JnftTuMJix3t2wJ7v9Gh-9" value="&lt;span style=&quot;font-size: 15px;&quot;&gt;&lt;font style=&quot;font-size: 15px;&quot;&gt;single select query&lt;/font&gt;&lt;/span&gt;" style="text;html=1;align=center;verticalAlign=middle;resizable=0;points=[];autosize=1;strokeColor=none;fillColor=none;fontSize=15;fontStyle=1" vertex="1" parent="1">
          <mxGeometry x="730" y="110" width="150" height="30" as="geometry" />
        </mxCell>
        <mxCell id="JnftTuMJix3t2wJ7v9Gh-10" value="&lt;span style=&quot;font-size: 15px;&quot;&gt;&lt;font style=&quot;font-size: 15px;&quot;&gt;single update query&lt;/font&gt;&lt;/span&gt;" style="text;html=1;align=center;verticalAlign=middle;resizable=0;points=[];autosize=1;strokeColor=none;fillColor=none;fontSize=15;fontStyle=1" vertex="1" parent="1">
          <mxGeometry x="730" y="200" width="150" height="30" as="geometry" />
        </mxCell>
        <mxCell id="JnftTuMJix3t2wJ7v9Gh-11" value="&lt;span style=&quot;font-size: 15px;&quot;&gt;&lt;font style=&quot;font-size: 15px;&quot;&gt;single delete query&lt;/font&gt;&lt;/span&gt;" style="text;html=1;align=center;verticalAlign=middle;resizable=0;points=[];autosize=1;strokeColor=none;fillColor=none;fontSize=15;fontStyle=1" vertex="1" parent="1">
          <mxGeometry x="730" y="140" width="150" height="30" as="geometry" />
        </mxCell>
        <mxCell id="JnftTuMJix3t2wJ7v9Gh-12" value="" style="rounded=0;whiteSpace=wrap;html=1;fillColor=none;" vertex="1" parent="1">
          <mxGeometry x="400" y="120" width="200" height="240" as="geometry" />
        </mxCell>
        <mxCell id="JnftTuMJix3t2wJ7v9Gh-13" value="&lt;font style=&quot;font-size: 16px;&quot;&gt;&lt;b&gt;Spring Data JPA&lt;/b&gt;&lt;/font&gt;" style="text;html=1;align=center;verticalAlign=middle;resizable=0;points=[];autosize=1;strokeColor=none;fillColor=none;" vertex="1" parent="1">
          <mxGeometry x="425" y="90" width="150" height="30" as="geometry" />
        </mxCell>
        <mxCell id="JnftTuMJix3t2wJ7v9Gh-14" value="" style="curved=1;endArrow=classic;html=1;rounded=0;entryX=0.018;entryY=0.624;entryDx=0;entryDy=0;entryPerimeter=0;exitX=1;exitY=0.5;exitDx=0;exitDy=0;strokeColor=#FF0000;strokeWidth=3;" edge="1" parent="1" source="JnftTuMJix3t2wJ7v9Gh-16" target="JnftTuMJix3t2wJ7v9Gh-7">
          <mxGeometry width="50" height="50" relative="1" as="geometry">
            <mxPoint x="560" y="185" as="sourcePoint" />
            <mxPoint x="600" y="200" as="targetPoint" />
            <Array as="points" />
          </mxGeometry>
        </mxCell>
        <mxCell id="JnftTuMJix3t2wJ7v9Gh-16" value="&lt;b&gt;&lt;font style=&quot;font-size: 15px;&quot;&gt;Query Method&lt;/font&gt;&lt;/b&gt;" style="text;html=1;align=center;verticalAlign=middle;whiteSpace=wrap;rounded=0;strokeColor=default;" vertex="1" parent="1">
          <mxGeometry x="440" y="125" width="120" height="45" as="geometry" />
        </mxCell>
        <mxCell id="JnftTuMJix3t2wJ7v9Gh-17" value="" style="curved=1;endArrow=classic;html=1;rounded=0;entryX=-0.014;entryY=0.482;entryDx=0;entryDy=0;entryPerimeter=0;exitX=1;exitY=0.5;exitDx=0;exitDy=0;strokeColor=#FF0000;strokeWidth=3;" edge="1" parent="1" source="JnftTuMJix3t2wJ7v9Gh-16" target="JnftTuMJix3t2wJ7v9Gh-9">
          <mxGeometry width="50" height="50" relative="1" as="geometry">
            <mxPoint x="570" y="195" as="sourcePoint" />
            <mxPoint x="733" y="159" as="targetPoint" />
            <Array as="points" />
          </mxGeometry>
        </mxCell>
        <mxCell id="JnftTuMJix3t2wJ7v9Gh-18" value="&lt;b&gt;&lt;font style=&quot;font-size: 15px;&quot;&gt;Dirty Checking&lt;/font&gt;&lt;/b&gt;" style="text;html=1;align=center;verticalAlign=middle;whiteSpace=wrap;rounded=0;strokeColor=default;" vertex="1" parent="1">
          <mxGeometry x="440" y="200" width="120" height="30" as="geometry" />
        </mxCell>
        <mxCell id="JnftTuMJix3t2wJ7v9Gh-19" value="" style="curved=1;endArrow=classic;html=1;rounded=0;entryX=-0.023;entryY=0.592;entryDx=0;entryDy=0;entryPerimeter=0;exitX=1;exitY=0.5;exitDx=0;exitDy=0;strokeColor=#FF0000;strokeWidth=3;" edge="1" parent="1" source="JnftTuMJix3t2wJ7v9Gh-18" target="JnftTuMJix3t2wJ7v9Gh-10">
          <mxGeometry width="50" height="50" relative="1" as="geometry">
            <mxPoint x="570" y="195" as="sourcePoint" />
            <mxPoint x="733" y="159" as="targetPoint" />
            <Array as="points" />
          </mxGeometry>
        </mxCell>
        <mxCell id="JnftTuMJix3t2wJ7v9Gh-20" value="" style="curved=1;endArrow=classic;html=1;rounded=0;entryX=-0.007;entryY=0.518;entryDx=0;entryDy=0;entryPerimeter=0;exitX=1;exitY=0.5;exitDx=0;exitDy=0;strokeColor=#FF0000;strokeWidth=3;" edge="1" parent="1" source="JnftTuMJix3t2wJ7v9Gh-16" target="JnftTuMJix3t2wJ7v9Gh-11">
          <mxGeometry width="50" height="50" relative="1" as="geometry">
            <mxPoint x="560" y="190" as="sourcePoint" />
            <mxPoint x="733" y="169" as="targetPoint" />
            <Array as="points" />
          </mxGeometry>
        </mxCell>
        <mxCell id="JnftTuMJix3t2wJ7v9Gh-21" value="&lt;span style=&quot;font-size: 15px;&quot;&gt;&lt;font style=&quot;font-size: 15px;&quot;&gt;Bulk delete query&lt;/font&gt;&lt;/span&gt;" style="text;html=1;align=center;verticalAlign=middle;resizable=0;points=[];autosize=1;strokeColor=none;fillColor=none;fontSize=15;fontStyle=1" vertex="1" parent="1">
          <mxGeometry x="735" y="240" width="140" height="30" as="geometry" />
        </mxCell>
        <mxCell id="JnftTuMJix3t2wJ7v9Gh-22" value="&lt;font style=&quot;font-size: 15px;&quot;&gt;&lt;b&gt;batchUpdate()&lt;/b&gt;&lt;/font&gt;" style="rounded=0;whiteSpace=wrap;html=1;fillColor=none;" vertex="1" parent="1">
          <mxGeometry x="400" y="400" width="200" height="40" as="geometry" />
        </mxCell>
        <mxCell id="JnftTuMJix3t2wJ7v9Gh-23" value="&lt;font style=&quot;font-size: 16px;&quot;&gt;&lt;b&gt;JDBC Template&lt;/b&gt;&lt;/font&gt;" style="text;html=1;align=center;verticalAlign=middle;resizable=0;points=[];autosize=1;strokeColor=none;fillColor=none;" vertex="1" parent="1">
          <mxGeometry x="425" y="370" width="140" height="30" as="geometry" />
        </mxCell>
        <mxCell id="JnftTuMJix3t2wJ7v9Gh-24" value="" style="rounded=0;whiteSpace=wrap;html=1;fillColor=none;" vertex="1" parent="1">
          <mxGeometry x="930" y="80" width="150" height="400" as="geometry" />
        </mxCell>
        <mxCell id="JnftTuMJix3t2wJ7v9Gh-25" value="" style="curved=1;endArrow=classic;html=1;rounded=0;entryX=-0.005;entryY=0.573;entryDx=0;entryDy=0;entryPerimeter=0;exitX=1;exitY=0.5;exitDx=0;exitDy=0;strokeColor=#00FFFF;strokeWidth=3;align=center;verticalAlign=middle;fontFamily=Helvetica;fontSize=11;fontColor=default;labelBackgroundColor=default;" edge="1" parent="1" source="JnftTuMJix3t2wJ7v9Gh-22" target="JnftTuMJix3t2wJ7v9Gh-8">
          <mxGeometry width="50" height="50" relative="1" as="geometry">
            <mxPoint x="570" y="205" as="sourcePoint" />
            <mxPoint x="736" y="198" as="targetPoint" />
            <Array as="points" />
          </mxGeometry>
        </mxCell>
        <mxCell id="JnftTuMJix3t2wJ7v9Gh-31" value="&lt;b&gt;&lt;font style=&quot;font-size: 15px;&quot;&gt;Entity 사이 관계: Lazy Loading&lt;/font&gt;&lt;/b&gt;" style="text;html=1;align=center;verticalAlign=middle;whiteSpace=wrap;rounded=0;strokeColor=default;" vertex="1" parent="1">
          <mxGeometry x="80" y="132.5" width="250" height="30" as="geometry" />
        </mxCell>
        <mxCell id="JnftTuMJix3t2wJ7v9Gh-33" value="&lt;span style=&quot;font-size: 15px;&quot;&gt;&lt;b&gt;Create&lt;/b&gt;&lt;/span&gt;" style="text;html=1;align=center;verticalAlign=middle;whiteSpace=wrap;rounded=0;strokeColor=default;" vertex="1" parent="1">
          <mxGeometry x="80" y="180" width="250" height="30" as="geometry" />
        </mxCell>
        <mxCell id="JnftTuMJix3t2wJ7v9Gh-35" value="&lt;span style=&quot;font-size: 15px;&quot;&gt;&lt;b&gt;@Modifiying&lt;/b&gt;&lt;/span&gt;" style="text;html=1;align=center;verticalAlign=middle;whiteSpace=wrap;rounded=0;strokeColor=default;" vertex="1" parent="1">
          <mxGeometry x="440" y="240" width="120" height="30" as="geometry" />
        </mxCell>
        <mxCell id="JnftTuMJix3t2wJ7v9Gh-36" value="" style="curved=1;endArrow=classic;html=1;rounded=0;entryX=-0.017;entryY=0.567;entryDx=0;entryDy=0;entryPerimeter=0;exitX=1;exitY=0.5;exitDx=0;exitDy=0;strokeColor=#FF3399;strokeWidth=3;align=center;verticalAlign=middle;fontFamily=Helvetica;fontSize=11;fontColor=default;labelBackgroundColor=default;" edge="1" parent="1" source="JnftTuMJix3t2wJ7v9Gh-35" target="JnftTuMJix3t2wJ7v9Gh-21">
          <mxGeometry width="50" height="50" relative="1" as="geometry">
            <mxPoint x="570" y="225" as="sourcePoint" />
            <mxPoint x="737" y="228" as="targetPoint" />
            <Array as="points" />
          </mxGeometry>
        </mxCell>
        <mxCell id="JnftTuMJix3t2wJ7v9Gh-37" value="&lt;span style=&quot;font-size: 15px;&quot;&gt;&lt;b&gt;@Query&lt;/b&gt;&lt;/span&gt;" style="text;html=1;align=center;verticalAlign=middle;whiteSpace=wrap;rounded=0;strokeColor=default;" vertex="1" parent="1">
          <mxGeometry x="440" y="280" width="120" height="30" as="geometry" />
        </mxCell>
        <mxCell id="JnftTuMJix3t2wJ7v9Gh-38" value="" style="curved=1;endArrow=classic;html=1;rounded=0;entryX=-0.017;entryY=0.567;entryDx=0;entryDy=0;entryPerimeter=0;exitX=1;exitY=0.5;exitDx=0;exitDy=0;strokeColor=#0000FF;strokeWidth=3;align=center;verticalAlign=middle;fontFamily=Helvetica;fontSize=11;fontColor=default;labelBackgroundColor=default;" edge="1" parent="1">
          <mxGeometry width="50" height="50" relative="1" as="geometry">
            <mxPoint x="560" y="294" as="sourcePoint" />
            <mxPoint x="733" y="296" as="targetPoint" />
            <Array as="points" />
          </mxGeometry>
        </mxCell>
        <mxCell id="JnftTuMJix3t2wJ7v9Gh-39" value="&lt;span style=&quot;font-size: 15px;&quot;&gt;&lt;font style=&quot;font-size: 15px;&quot;&gt;single select&lt;/font&gt;&lt;/span&gt;&lt;div&gt;&lt;span style=&quot;font-size: 15px;&quot;&gt;&lt;font style=&quot;font-size: 15px;&quot;&gt;fetch join query&lt;/font&gt;&lt;/span&gt;&lt;/div&gt;" style="text;html=1;align=center;verticalAlign=middle;resizable=0;points=[];autosize=1;strokeColor=none;fillColor=none;fontSize=15;fontStyle=1" vertex="1" parent="1">
          <mxGeometry x="745" y="270" width="130" height="50" as="geometry" />
        </mxCell>
        <mxCell id="JnftTuMJix3t2wJ7v9Gh-40" value="" style="curved=1;endArrow=classic;html=1;rounded=0;exitX=1;exitY=0.5;exitDx=0;exitDy=0;strokeColor=#FF3399;strokeWidth=3;align=center;verticalAlign=middle;fontFamily=Helvetica;fontSize=11;fontColor=default;labelBackgroundColor=default;" edge="1" parent="1" source="JnftTuMJix3t2wJ7v9Gh-37">
          <mxGeometry width="50" height="50" relative="1" as="geometry">
            <mxPoint x="570" y="304" as="sourcePoint" />
            <mxPoint x="730" y="260" as="targetPoint" />
            <Array as="points" />
          </mxGeometry>
        </mxCell>
        <mxCell id="JnftTuMJix3t2wJ7v9Gh-41" value="&lt;span style=&quot;font-size: 15px;&quot;&gt;&lt;b&gt;Read&lt;/b&gt;&lt;/span&gt;" style="text;html=1;align=center;verticalAlign=middle;whiteSpace=wrap;rounded=0;strokeColor=default;" vertex="1" parent="1">
          <mxGeometry x="80" y="220" width="250" height="30" as="geometry" />
        </mxCell>
        <mxCell id="JnftTuMJix3t2wJ7v9Gh-42" value="&lt;span style=&quot;font-size: 15px;&quot;&gt;&lt;b&gt;Update&lt;/b&gt;&lt;/span&gt;" style="text;html=1;align=center;verticalAlign=middle;whiteSpace=wrap;rounded=0;strokeColor=default;" vertex="1" parent="1">
          <mxGeometry x="80" y="260" width="250" height="30" as="geometry" />
        </mxCell>
        <mxCell id="JnftTuMJix3t2wJ7v9Gh-43" value="&lt;span style=&quot;font-size: 15px;&quot;&gt;&lt;b&gt;Delete(논리적 or 물리적)&lt;/b&gt;&lt;/span&gt;" style="text;html=1;align=center;verticalAlign=middle;whiteSpace=wrap;rounded=0;strokeColor=default;" vertex="1" parent="1">
          <mxGeometry x="80" y="300" width="250" height="30" as="geometry" />
        </mxCell>
        <mxCell id="JnftTuMJix3t2wJ7v9Gh-44" value="" style="curved=1;endArrow=classic;html=1;rounded=0;entryX=0;entryY=0.5;entryDx=0;entryDy=0;exitX=1;exitY=0.5;exitDx=0;exitDy=0;strokeColor=#FF0000;strokeWidth=3;" edge="1" parent="1" source="JnftTuMJix3t2wJ7v9Gh-33" target="JnftTuMJix3t2wJ7v9Gh-16">
          <mxGeometry width="50" height="50" relative="1" as="geometry">
            <mxPoint x="570" y="158" as="sourcePoint" />
            <mxPoint x="743" y="109" as="targetPoint" />
            <Array as="points" />
          </mxGeometry>
        </mxCell>
        <mxCell id="JnftTuMJix3t2wJ7v9Gh-45" value="" style="curved=1;endArrow=classic;html=1;rounded=0;exitX=1;exitY=0.5;exitDx=0;exitDy=0;strokeColor=#FF0000;strokeWidth=3;entryX=0;entryY=0.5;entryDx=0;entryDy=0;" edge="1" parent="1" source="JnftTuMJix3t2wJ7v9Gh-41" target="JnftTuMJix3t2wJ7v9Gh-16">
          <mxGeometry width="50" height="50" relative="1" as="geometry">
            <mxPoint x="340" y="205" as="sourcePoint" />
            <mxPoint x="450" y="158" as="targetPoint" />
            <Array as="points" />
          </mxGeometry>
        </mxCell>
        <mxCell id="JnftTuMJix3t2wJ7v9Gh-46" value="" style="curved=1;endArrow=classic;html=1;rounded=0;entryX=0;entryY=0.5;entryDx=0;entryDy=0;exitX=1;exitY=0.5;exitDx=0;exitDy=0;strokeColor=#0000FF;strokeWidth=3;" edge="1" parent="1" source="JnftTuMJix3t2wJ7v9Gh-41" target="JnftTuMJix3t2wJ7v9Gh-37">
          <mxGeometry width="50" height="50" relative="1" as="geometry">
            <mxPoint x="340" y="245" as="sourcePoint" />
            <mxPoint x="450" y="169" as="targetPoint" />
            <Array as="points" />
          </mxGeometry>
        </mxCell>
        <mxCell id="JnftTuMJix3t2wJ7v9Gh-47" value="" style="curved=1;endArrow=classic;html=1;rounded=0;entryX=0;entryY=0.5;entryDx=0;entryDy=0;strokeColor=#00FFFF;strokeWidth=3;exitX=1;exitY=0.5;exitDx=0;exitDy=0;" edge="1" parent="1" source="JnftTuMJix3t2wJ7v9Gh-33" target="JnftTuMJix3t2wJ7v9Gh-22">
          <mxGeometry width="50" height="50" relative="1" as="geometry">
            <mxPoint x="330" y="190" as="sourcePoint" />
            <mxPoint x="450" y="158" as="targetPoint" />
            <Array as="points" />
          </mxGeometry>
        </mxCell>
        <mxCell id="JnftTuMJix3t2wJ7v9Gh-48" value="" style="curved=1;endArrow=classic;html=1;rounded=0;entryX=0;entryY=0.5;entryDx=0;entryDy=0;exitX=1;exitY=0.5;exitDx=0;exitDy=0;strokeColor=#FF0000;strokeWidth=3;" edge="1" parent="1" source="JnftTuMJix3t2wJ7v9Gh-42" target="JnftTuMJix3t2wJ7v9Gh-18">
          <mxGeometry width="50" height="50" relative="1" as="geometry">
            <mxPoint x="340" y="245" as="sourcePoint" />
            <mxPoint x="450" y="305" as="targetPoint" />
            <Array as="points" />
          </mxGeometry>
        </mxCell>
        <mxCell id="JnftTuMJix3t2wJ7v9Gh-49" value="" style="curved=1;endArrow=classic;html=1;rounded=0;entryX=0;entryY=0.5;entryDx=0;entryDy=0;exitX=1;exitY=0.5;exitDx=0;exitDy=0;strokeColor=#FF3399;strokeWidth=3;" edge="1" parent="1" source="JnftTuMJix3t2wJ7v9Gh-43" target="JnftTuMJix3t2wJ7v9Gh-35">
          <mxGeometry width="50" height="50" relative="1" as="geometry">
            <mxPoint x="340" y="285" as="sourcePoint" />
            <mxPoint x="450" y="225" as="targetPoint" />
            <Array as="points" />
          </mxGeometry>
        </mxCell>
        <mxCell id="JnftTuMJix3t2wJ7v9Gh-50" value="" style="curved=1;endArrow=classic;html=1;rounded=0;entryX=0;entryY=0.5;entryDx=0;entryDy=0;exitX=1;exitY=0.5;exitDx=0;exitDy=0;strokeColor=#FF0000;strokeWidth=3;" edge="1" parent="1" source="JnftTuMJix3t2wJ7v9Gh-43" target="JnftTuMJix3t2wJ7v9Gh-16">
          <mxGeometry width="50" height="50" relative="1" as="geometry">
            <mxPoint x="340" y="285" as="sourcePoint" />
            <mxPoint x="450" y="265" as="targetPoint" />
            <Array as="points" />
          </mxGeometry>
        </mxCell>
        <mxCell id="JnftTuMJix3t2wJ7v9Gh-51" value="" style="curved=1;endArrow=classic;html=1;rounded=0;entryX=0;entryY=0.5;entryDx=0;entryDy=0;exitX=1;exitY=0.5;exitDx=0;exitDy=0;strokeColor=#FF0000;strokeWidth=3;" edge="1" parent="1" source="JnftTuMJix3t2wJ7v9Gh-43" target="JnftTuMJix3t2wJ7v9Gh-18">
          <mxGeometry width="50" height="50" relative="1" as="geometry">
            <mxPoint x="340" y="325" as="sourcePoint" />
            <mxPoint x="450" y="158" as="targetPoint" />
            <Array as="points" />
          </mxGeometry>
        </mxCell>
        <mxCell id="JnftTuMJix3t2wJ7v9Gh-52" value="&lt;span style=&quot;font-size: 15px;&quot;&gt;&lt;b&gt;Paging 기능 - @BatchSize&lt;/b&gt;&lt;/span&gt;" style="text;html=1;align=center;verticalAlign=middle;whiteSpace=wrap;rounded=0;strokeColor=default;" vertex="1" parent="1">
          <mxGeometry x="80" y="340" width="250" height="30" as="geometry" />
        </mxCell>
        <mxCell id="JnftTuMJix3t2wJ7v9Gh-53" value="" style="curved=1;endArrow=classic;html=1;rounded=0;exitX=1;exitY=0.5;exitDx=0;exitDy=0;strokeColor=#00FF80;strokeWidth=3;entryX=0;entryY=0.5;entryDx=0;entryDy=0;" edge="1" parent="1" source="JnftTuMJix3t2wJ7v9Gh-52" target="JnftTuMJix3t2wJ7v9Gh-16">
          <mxGeometry width="50" height="50" relative="1" as="geometry">
            <mxPoint x="340" y="205" as="sourcePoint" />
            <mxPoint x="440" y="158" as="targetPoint" />
            <Array as="points" />
          </mxGeometry>
        </mxCell>
        <mxCell id="JnftTuMJix3t2wJ7v9Gh-54" value="" style="curved=1;endArrow=classic;html=1;rounded=0;exitX=1;exitY=0.5;exitDx=0;exitDy=0;strokeColor=#00FF80;strokeWidth=3;align=center;verticalAlign=middle;fontFamily=Helvetica;fontSize=11;fontColor=default;labelBackgroundColor=default;" edge="1" parent="1" source="JnftTuMJix3t2wJ7v9Gh-16">
          <mxGeometry width="50" height="50" relative="1" as="geometry">
            <mxPoint x="570" y="158" as="sourcePoint" />
            <mxPoint x="730" y="180" as="targetPoint" />
            <Array as="points" />
          </mxGeometry>
        </mxCell>
        <mxCell id="JnftTuMJix3t2wJ7v9Gh-55" value="&lt;span style=&quot;font-size: 15px;&quot;&gt;&lt;font style=&quot;font-size: 15px;&quot;&gt;single select paging query&lt;/font&gt;&lt;/span&gt;" style="text;html=1;align=center;verticalAlign=middle;resizable=0;points=[];autosize=1;strokeColor=none;fillColor=none;fontSize=15;fontStyle=1" vertex="1" parent="1">
          <mxGeometry x="730" y="170" width="200" height="30" as="geometry" />
        </mxCell>
      </root>
    </mxGraphModel>
  </diagram>
</mxfile>
